<?xml version="1.0" encoding="utf-8"?>
<!-- Generator: Adobe Illustrator 17.1.0, SVG Export Plug-In . SVG Version: 6.00 Build 0)  -->
<!DOCTYPE svg PUBLIC "-//W3C//DTD SVG 1.1//EN" "http://www.w3.org/Graphics/SVG/1.1/DTD/svg11.dtd">
<svg version="1.1" id="Layer_1" xmlns="http://www.w3.org/2000/svg" xmlns:xlink="http://www.w3.org/1999/xlink" x="0px" y="0px"
	 viewBox="0 0 64 64" enable-background="new 0 0 64 64" xml:space="preserve">
<g>
	<path fill="#F9812A" d="M13,52.8c0.1,2.6,1.1,4.9,3,6.7c1.7,1.6,4,2.5,6.4,2.5l0,0c2.6,0,5.2-1.1,7-3.1c3.2-3.5,3.3-9,0.2-12.5
		l16.5-18.1c1.6,1.2,3.5,1.8,5.5,1.8c2.6,0,5.2-1.1,6.9-3.1c3.5-3.8,3.2-9.8-0.6-13.3C56,12,53.5,11.1,51,11.3
		c-0.1-2.6-1.1-4.9-3-6.7c-1.7-1.6-4-2.5-6.4-2.5c-2.6,0-5.2,1.1-7,3.1C32.9,7.1,32,9.5,32.1,12c0.1,2.2,0.9,4.3,2.4,5.9L18,35.9
		c-1.6-1.2-3.6-1.9-5.7-1.9c-2.6,0-5.2,1.1-7,3.1C2,40.8,2.2,46.8,6.1,50.3C7.9,52,10.4,52.9,13,52.8z M7,38.3
		c1.4-1.5,3.4-2.4,5.5-2.4c1.8,0,3.6,0.7,5,1.9l0.1,0.1c0.4,0.4,1,0.3,1.4-0.1l17.8-19.4c0.2-0.2,0.3-0.5,0.3-0.7
		c0-0.3-0.1-0.5-0.3-0.7l-0.1-0.1c-1.5-1.3-2.3-3.2-2.4-5.2c-0.1-2,0.6-3.9,1.9-5.4c1.4-1.5,3.4-2.4,5.5-2.4c1.9,0,3.6,0.7,5,2
		c1.7,1.6,2.6,3.9,2.3,6.2c0,0.3,0.1,0.6,0.3,0.8s0.6,0.3,0.9,0.2c2.3-0.4,4.7,0.2,6.4,1.8c3,2.8,3.2,7.5,0.5,10.5
		c-1.4,1.5-3.4,2.4-5.5,2.4c-1.8,0-3.6-0.7-5-1.9c-0.4-0.4-1-0.3-1.4,0.1L27.4,45.7c-0.4,0.4-0.3,1,0.1,1.4
		c2.9,2.8,3.1,7.5,0.4,10.4c-1.4,1.5-3.4,2.4-5.5,2.4l0,0c-1.9,0-3.6-0.7-5-2c-1.7-1.6-2.6-3.9-2.3-6.2c0-0.3-0.1-0.6-0.3-0.8
		s-0.4-0.3-0.7-0.3c-0.1,0-0.1,0-0.2,0c-2.3,0.4-4.7-0.2-6.4-1.8C4.4,46.1,4.2,41.4,7,38.3z"/>
</g>
</svg>
